<svg xmlns="http://www.w3.org/2000/svg" xmlns:xlink="http://www.w3.org/1999/xlink" width="500" zoomAndPan="magnify" viewBox="0 0 375 374.999991" height="500" preserveAspectRatio="xMidYMid meet" version="1.0"><defs><g/></defs><g fill="#ffffff" fill-opacity="1"><g transform="translate(84.96432, 192.693518)"><g><path d="M 2.65625 0 L 2.65625 -22.6875 L 10.484375 -22.6875 L 10.484375 -20.296875 L 10.5625 -20.296875 C 12.601562 -22.328125 14.769531 -23.34375 17.0625 -23.34375 C 18.71875 -23.34375 20.265625 -23.003906 21.703125 -22.328125 C 23.148438 -21.648438 24.242188 -20.601562 24.984375 -19.1875 C 27.285156 -21.957031 29.789062 -23.34375 32.5 -23.34375 C 34.914062 -23.34375 36.992188 -22.664062 38.734375 -21.3125 C 40.472656 -19.957031 41.34375 -17.835938 41.34375 -14.953125 L 41.34375 0 L 33.515625 0 L 33.515625 -12.828125 C 33.515625 -14.035156 33.179688 -15.039062 32.515625 -15.84375 C 31.859375 -16.65625 30.863281 -17.0625 29.53125 -17.0625 C 28.382812 -17.0625 27.507812 -16.710938 26.90625 -16.015625 C 26.300781 -15.328125 25.96875 -14.5 25.90625 -13.53125 L 25.90625 0 L 18.078125 0 L 18.078125 -12.828125 C 18.078125 -14.035156 17.742188 -15.039062 17.078125 -15.84375 C 16.421875 -16.65625 15.429688 -17.0625 14.109375 -17.0625 C 12.898438 -17.0625 11.992188 -16.6875 11.390625 -15.9375 C 10.785156 -15.1875 10.484375 -14.296875 10.484375 -13.265625 L 10.484375 0 Z M 2.65625 0 "/></g></g></g><g fill="#ffffff" fill-opacity="1"><g transform="translate(124.348279, 192.693518)"><g><path d="M 19.859375 -22.6875 L 28.875 -22.6875 L 11.0625 11.5 L 2.03125 11.5 L 9.859375 -3.53125 L -0.890625 -22.6875 L 8.140625 -22.6875 L 14.453125 -11.0625 Z M 19.859375 -22.6875 "/></g></g></g><g fill="#ffffff" fill-opacity="1"><g transform="translate(148.172725, 192.693518)"><g><path d="M 2.65625 -36.484375 L 13.96875 -36.484375 C 17.394531 -36.484375 20.125 -35.753906 22.15625 -34.296875 C 24.1875 -32.835938 25.203125 -30.46875 25.203125 -27.1875 C 25.203125 -23.539062 23.6875 -20.9375 20.65625 -19.375 C 25.84375 -18.457031 28.4375 -15.390625 28.4375 -10.171875 C 28.4375 -7.109375 27.375 -4.644531 25.25 -2.78125 C 23.125 -0.925781 20.207031 0 16.5 0 L 2.65625 0 Z M 10.96875 -22.203125 L 11.625 -22.203125 C 13.488281 -22.203125 14.875 -22.523438 15.78125 -23.171875 C 16.695312 -23.816406 17.15625 -24.878906 17.15625 -26.359375 C 17.15625 -28.828125 15.3125 -30.0625 11.625 -30.0625 L 10.96875 -30.0625 Z M 10.96875 -6.40625 L 13.578125 -6.40625 C 17.640625 -6.40625 19.671875 -7.765625 19.671875 -10.484375 C 19.671875 -12.097656 19.160156 -13.257812 18.140625 -13.96875 C 17.128906 -14.675781 15.609375 -15.03125 13.578125 -15.03125 L 10.96875 -15.03125 Z M 10.96875 -6.40625 "/></g></g></g><g fill="#ffffff" fill-opacity="1"><g transform="translate(173.45588, 192.693518)"><g><path d="M 3.40625 -35.328125 C 4.320312 -36.242188 5.410156 -36.703125 6.671875 -36.703125 C 7.941406 -36.703125 9.03125 -36.242188 9.9375 -35.328125 C 10.851562 -34.410156 11.3125 -33.316406 11.3125 -32.046875 C 11.3125 -30.785156 10.851562 -29.695312 9.9375 -28.78125 C 9.03125 -27.875 7.941406 -27.421875 6.671875 -27.421875 C 5.410156 -27.421875 4.320312 -27.875 3.40625 -28.78125 C 2.488281 -29.695312 2.03125 -30.785156 2.03125 -32.046875 C 2.03125 -33.316406 2.488281 -34.410156 3.40625 -35.328125 Z M 2.65625 -22.6875 L 2.65625 0 L 10.484375 0 L 10.484375 -22.6875 Z M 2.65625 -22.6875 "/></g></g></g><g fill="#ffffff" fill-opacity="1"><g transform="translate(182.649079, 192.693518)"><g><path d="M 24.578125 -22.6875 L 13.359375 -5.96875 L 23.703125 -5.96875 L 23.703125 0 L 0.21875 0 L 11.453125 -16.71875 L 2.078125 -16.71875 L 2.078125 -22.6875 Z M 24.578125 -22.6875 "/></g></g></g><g fill="#ffffff" fill-opacity="1"><g transform="translate(203.2909, 192.693518)"><g><path d="M 21.1875 -36.484375 L 35.90625 0 L 26.96875 0 L 24.28125 -7.296875 L 10.390625 -7.296875 L 7.6875 0 L -1.234375 0 L 13.484375 -36.484375 Z M 21.453125 -14.59375 L 17.375 -25.203125 L 17.296875 -25.203125 L 13.21875 -14.59375 Z M 21.453125 -14.59375 "/></g></g></g><g fill="#ffffff" fill-opacity="1"><g transform="translate(233.790032, 192.693518)"><g><path d="M 26 -19.875 C 28.125 -17.5625 29.1875 -14.722656 29.1875 -11.359375 C 29.1875 -8.003906 28.125 -5.160156 26 -2.828125 C 23.875 -0.503906 21.175781 0.65625 17.90625 0.65625 C 14.894531 0.65625 12.421875 -0.285156 10.484375 -2.171875 L 10.484375 11.5 L 2.65625 11.5 L 2.65625 -22.6875 L 10.390625 -22.6875 L 10.390625 -20.125 L 10.484375 -20.125 C 12.421875 -22.269531 14.894531 -23.34375 17.90625 -23.34375 C 21.175781 -23.34375 23.875 -22.1875 26 -19.875 Z M 19.34375 -7.515625 C 20.363281 -8.515625 20.875 -9.796875 20.875 -11.359375 C 20.875 -12.921875 20.382812 -14.195312 19.40625 -15.1875 C 18.4375 -16.175781 17.15625 -16.671875 15.5625 -16.671875 C 14.03125 -16.671875 12.769531 -16.164062 11.78125 -15.15625 C 10.789062 -14.15625 10.296875 -12.890625 10.296875 -11.359375 C 10.296875 -9.796875 10.804688 -8.515625 11.828125 -7.515625 C 12.847656 -6.515625 14.09375 -6.015625 15.5625 -6.015625 C 17.0625 -6.015625 18.320312 -6.515625 19.34375 -7.515625 Z M 19.34375 -7.515625 "/></g></g></g><g fill="#ffffff" fill-opacity="1"><g transform="translate(259.824641, 192.693518)"><g><path d="M 26 -19.875 C 28.125 -17.5625 29.1875 -14.722656 29.1875 -11.359375 C 29.1875 -8.003906 28.125 -5.160156 26 -2.828125 C 23.875 -0.503906 21.175781 0.65625 17.90625 0.65625 C 14.894531 0.65625 12.421875 -0.285156 10.484375 -2.171875 L 10.484375 11.5 L 2.65625 11.5 L 2.65625 -22.6875 L 10.390625 -22.6875 L 10.390625 -20.125 L 10.484375 -20.125 C 12.421875 -22.269531 14.894531 -23.34375 17.90625 -23.34375 C 21.175781 -23.34375 23.875 -22.1875 26 -19.875 Z M 19.34375 -7.515625 C 20.363281 -8.515625 20.875 -9.796875 20.875 -11.359375 C 20.875 -12.921875 20.382812 -14.195312 19.40625 -15.1875 C 18.4375 -16.175781 17.15625 -16.671875 15.5625 -16.671875 C 14.03125 -16.671875 12.769531 -16.164062 11.78125 -15.15625 C 10.789062 -14.15625 10.296875 -12.890625 10.296875 -11.359375 C 10.296875 -9.796875 10.804688 -8.515625 11.828125 -7.515625 C 12.847656 -6.515625 14.09375 -6.015625 15.5625 -6.015625 C 17.0625 -6.015625 18.320312 -6.515625 19.34375 -7.515625 Z M 19.34375 -7.515625 "/></g></g></g></svg>